<svg id="socialicious" xmlns="http://www.w3.org/2000/svg" width="100" height="100" viewBox="0 0 100 100"><style>.st0{fill:#464342}.st1{fill:#e04b26}.st2{fill:#e74b24}.st3{fill:#e94c88}.st4{fill:#1ab6ea}.st5{fill:#ea2429}.st6{fill:#ec1e82}.st7{fill:#b9b9ba}.st8{fill:#ee3e53}.st9{fill:#ee4977}.st10{fill:#5496d0}.st11{fill:#bbb}.st12{fill:#bcbcbc}.st13{fill:#f16722}.st14{fill:#5a471c}.st15{fill:url(#SVGID_1_)}.st16{fill:url(#SVGID_2_)}.st17{fill:#2aa9e0}.st18,.st19{fill-rule:evenodd;clip-rule:evenodd;fill:#bbb}.st19{fill:#bcbcbc}.st20{fill:#c93c27}.st21{fill:#638bb0}.st22{fill:#ca2027}.st23{fill:#30302f}.st24{fill:#34373d}.st25{fill:#00405d}.st26{fill:#007ee5}.st27{fill:#00a8e1}.st28{fill-rule:evenodd;clip-rule:evenodd;fill:#fff}.st29{fill:#035795}.st30{fill:#3c5a97}.st31{fill:#3f64ae}.st32{fill:#3f729b}.st33{fill:#a42f23}.st34{fill:#75c044}.st35{fill:#a72723}.st36{fill:#db2726}.st37{fill:#d33}.st38{fill:url(#soundcloud_2_)}.st39{fill:#442d86}.st40{fill:#44556b}</style><g id="linkedin"><path class="st28" d="M22.7 97.8V33.3H1.3v64.5h21.4zM12 24.5c7.5 0 12.1-5 12.1-11.1C24 7 19.5 2.2 12.1 2.2 4.8 2.2 0 7 0 13.4c0 6.2 4.6 11.1 11.8 11.1h.2zM34.6 97.8H56v-36c0-1.9.1-3.9.7-5.2 1.5-3.9 5.1-7.8 11-7.8 7.8 0 10.9 5.9 10.9 14.6v34.5H100v-37c0-19.8-10.6-29-24.7-29-11.6 0-16.6 6.5-19.5 10.9h.2v-9.4H34.6c.2 5.9 0 64.4 0 64.4z"/></g></svg>